# xmcd CD database file
#
# Track frame offsets:
#	183
#	11245
#	25895
#	48645
#	64258
#	76533
#
# Disc length: 1285 seconds
#
# Revision: 2
# Processed by: cddbd v1.5.2PL0 Copyright (c) Steve Scherf et al.
# Submitted via: Feurio! 1.50.2ß - http://www.feurio.com
#
DISCID=44050306
DTITLE=B.B.King - The Magic Collection
DYEAR=1995
DGENRE=Blues
TTITLE0=Catfish Blues
TTITLE1=B.B.Boogie
TTITLE2=Everyday (I Have The Blues)
TTITLE3=Walkin' And Cryin'
TTITLE4=Please Love Me
TTITLE5=How Blue Can You Get
EXTD=Eigentümer Daniel Perlick
EXTT0=
EXTT1=
EXTT2=
EXTT3=
EXTT4=
EXTT5=
PLAYORDER=
